<svg width="228" height="271" viewBox="0 0 228 271" fill="none" xmlns="http://www.w3.org/2000/svg">
<path d="M130.875 36.1996C121.842 31.9888 112.062 28.9325 101.875 27.1667C101.786 27.1638 101.697 27.1806 101.615 27.2158C101.533 27.251 101.459 27.3038 101.4 27.3704C100.177 29.6117 98.7508 32.5321 97.8 34.7734C86.9944 33.1434 76.0055 33.1434 65.2 34.7734C64.2491 32.4642 62.8229 29.6117 61.5325 27.3704C61.4646 27.2346 61.2608 27.1667 61.0571 27.1667C50.8696 28.9325 41.1575 31.9888 32.0566 36.1996C31.9887 36.1996 31.9208 36.2675 31.8529 36.3354C13.3796 63.9775 8.28582 90.8725 10.7987 117.496C10.7987 117.632 10.8666 117.768 11.0025 117.835C23.2275 126.8 34.9771 132.234 46.5908 135.833C46.7946 135.901 46.9983 135.833 47.0662 135.698C49.7829 131.962 52.2279 128.023 54.3333 123.88C54.4691 123.608 54.3333 123.337 54.0616 123.269C50.1904 121.775 46.5229 120.009 42.9233 117.971C42.6516 117.835 42.6516 117.428 42.8554 117.224C43.6025 116.681 44.3496 116.07 45.0966 115.526C45.2325 115.39 45.4362 115.39 45.5721 115.458C68.9354 126.121 94.1325 126.121 117.224 115.458C117.36 115.39 117.564 115.39 117.7 115.526C118.447 116.138 119.194 116.681 119.941 117.292C120.212 117.496 120.212 117.903 119.873 118.039C116.341 120.145 112.606 121.843 108.735 123.337C108.463 123.405 108.395 123.744 108.463 123.948C110.636 128.091 113.081 132.03 115.73 135.765C115.934 135.833 116.137 135.901 116.341 135.833C128.023 132.234 139.772 126.8 151.997 117.835C152.133 117.768 152.201 117.632 152.201 117.496C155.19 86.7296 147.243 60.0384 131.147 36.3354C131.079 36.2675 131.011 36.1996 130.875 36.1996ZM57.865 101.264C50.8696 101.264 45.0287 94.8117 45.0287 86.8654C45.0287 78.9192 50.7337 72.4671 57.865 72.4671C65.0641 72.4671 70.7691 78.9871 70.7012 86.8654C70.7012 94.8117 64.9962 101.264 57.865 101.264ZM105.203 101.264C98.2075 101.264 92.3666 94.8117 92.3666 86.8654C92.3666 78.9192 98.0716 72.4671 105.203 72.4671C112.402 72.4671 118.107 78.9871 118.039 86.8654C118.039 94.8117 112.402 101.264 105.203 101.264Z" fill="white"/>
<path d="M133.5 218.5H175.5V208H133.5V218.5ZM133.5 202.75H196.5V192.25H133.5V202.75ZM133.5 187H196.5V176.5H133.5V187ZM112.5 260.5V166C112.5 163.112 113.529 160.64 115.587 158.582C117.641 156.527 120.112 155.5 123 155.5H207C209.887 155.5 212.36 156.527 214.418 158.582C216.473 160.64 217.5 163.112 217.5 166V229C217.5 231.887 216.473 234.36 214.418 236.418C212.36 238.473 209.887 239.5 207 239.5H133.5L112.5 260.5Z" fill="white"/>
</svg>
